<svg xmlns="http://www.w3.org/2000/svg" width="1572" height="1578.667" viewBox="0 0 1179 1184" preserveAspectRatio="xMidYMid meet" xmlns:v="https://vecta.io/nano"><path d="M.1 295.7L.6 590c.2-.8 2-14.3 3.9-30l4.1-31.4.6-2.9 6.1.7c3.3.3 6.3.8 6.5 1.1.3.2-.3 6.4-1.2 13.6-1 7.2-1.6 13.2-1.4 13.4.2.1 18.5 2.6 40.8 5.4l41.2 5.9c.4.4.2 4-.4 8-1 6.8-1.2 7.2-3.7 7.2-1.4 0-19.9-2.3-41.1-5-24-3.1-38.6-4.6-39-4s-1.2 5.8-1.9 11.8c-1.8 15.4-1.1 14.4-8.7 13.6l-6.4-.7v293.7V1184h589.5H1179V592 0H589.5 0l.1 295.7zm586.3-233l9.4 30.8 9.8 33 1.8 6.9 1.4-4.4c1.6-5.1 23.5-62.4 25.4-66.6l1.2-2.7 9.5.6c5.2.4 9.5.8 9.6.9.2.2 10.8 85.1 11.8 94.3.2 1.8-.5 2-8.1 2.3-6 .2-8.3-.1-8.7-1-.2-.7-2-15.5-4-32.8l-4.1-35.8c-.5-4.3-.6-4.2-5 8.5-9.9 28.6-22 59.8-23.2 59.7-.6-.1-4.5-.2-8.5-.3l-7.2-.1-9.8-31.8c-5.4-17.5-10-33.5-10.4-35.6-.5-3.5-2.3-6.1-2.3-3.4 0 1.5-9.7 62.9-10.6 67-.5 2.7-.8 2.8-6.2 2.8-7.4 0-10.2-.8-10.2-2.9 0-.9 3.3-19.2 7.4-40.6l8.6-46.3 1.2-7.2h9.9 9.8l1.5 4.7zm-74.3 45.6l18.3 45.3c.6 2-.1 2.3-7.5 4.2l-8.1 2-2-4.6c-3.1-7.2-23.4-58.3-24.4-61.5-.7-2.1-1.8 6.6-4.3 34l-3.7 38.4c-.3 1.1-3.1 2.3-8.5 3.7l-8 2-2.6-4.2-16.1-25.6-17.9-29c-2.4-4.1-4.1-6.4-3.8-5 .5 2.6 3.2 26.6 6 54.4.9 8.7 1.3 16.2.8 16.7-1 .9-14.4 4.1-15 3.5-.2-.2-2.1-22-4.1-48.6-3.4-43-3.6-48.2-2.2-49 .8-.4 5-1.6 9.3-2.6 7.6-1.7 7.7-1.7 9.1.2 2.9 3.9 35.5 56.1 37.7 60.4l2.4 4.5.3-5c.1-2.8 1.8-19.9 3.7-38.1l3.5-34.2c0-.9 14-4.9 18-5.1 1.1-.1 6.6 12.3 19.1 43.2zm226.2-31.2l24.5 6.4c.8.8-2.2 12.5-3.2 12.5-.6 0-8.6-1.9-17.8-4.1-9.3-2.3-17-4-17.2-3.8-1.1 1.4-6.3 25.5-5.6 25.9.5.3 8.1 2.3 17 4.5 12.9 3.1 15.9 4.2 15.5 5.5l-1.6 6.2c-.6 2.7-1.3 4.8-1.6 4.8-.2 0-7.6-1.8-16.5-4-8.9-2.3-16.4-3.7-16.8-3.3-.7.8-7 25.3-7 27.2 0 .5 7.9 2.8 17.6 5.2l17.6 4.4-.6 2.9-1.6 6.7-1 3.7-25.1-6.3c-13.8-3.5-25.3-6.6-25.7-7-.5-.5 21.3-90.5 22.5-92.8.6-1.1.9-1.1 26.6 5.4zm-379.4 36.1c1.6 4 5.9 13.8 9.4 21.8l25.7 59.3c0 .8-12.4 6.7-13.9 6.7-.5 0-5.9-11.6-12.1-25.8l-19.2-43.5c-4.3-9.8-7.8-18.2-7.8-18.6 0-.7 12.5-6.9 14.2-7 .3-.1 2 3.2 3.7 7.1zm507.6 12c3.6 1.8 6.4 3.5 6.3 3.9-.2.4-15.8 15.2-34.8 32.9l-37.6 35.2-3.1 2.9-6.7-3.3c-3.6-1.8-6.6-3.5-6.6-3.9s5.3-5.6 11.8-11.6l63.8-59.3c.2 0 3.3 1.4 6.9 3.2zM305 138l3 6-2.2.9c-14.2 5.5-18.7 8.2-23 13.7-3 3.7-3.1 10.8-.3 14.6 3.9 5.2 8.8 5.9 24 3.2 15.9-2.8 27.4-.5 32.5 6.5 6.9 9.8 8.2 20.6 3.6 30.6-3.9 8.5-12.1 16-24.4 22.3-5.7 2.8-10.9 5.2-11.6 5.2-1.7 0-7.9-11.6-7.1-13 .3-.6 1.3-1 2.1-1 .9 0 5-1.4 9.2-3.2 5.3-2.2 9.2-4.7 12.8-8.2 6.4-6.2 7.6-10.5 4.8-16.2-4-8-9-9.1-27.2-5.9-17.5 3.1-27 0-33.1-10.7-9.9-17.4-1-34.6 24.3-46.9 4.4-2.2 8.3-3.9 8.8-3.9.4 0 2.1 2.7 3.8 6zm623.8 25.5c6 1.8 18 9.6 23.6 15.4l3.9 4-4.2 5c-2.4 2.8-4.4 5.1-4.5 5.1s-2.9-2.6-6.3-5.9c-13.5-12.8-26-14.6-30.9-4.3-2.3 4.8-1.2 8.5 5.2 18.8 9.2 15 10.9 19 10.9 26.5 0 6.1-.3 7.2-3.8 12.2-6.2 8.9-13.4 12.7-24.3 12.7-11.5 0-25.2-6.9-36.3-18.3l-4.4-4.6 4.8-5.5 4.7-5.5 5.4 5.9c13.6 14.6 27.5 17.9 34 8 3.7-5.5 2.9-10.1-3.2-19.9-10-16.1-11.8-20.1-11.8-26.6.1-9.5 5.1-17.7 13.6-21.9 6.2-3.1 15.4-3.5 23.6-1.1zm-291.3 23.4c94.1 9.7 178.6 45.8 253 108 12.3 10.2 45.2 43.4 55.4 55.6 64.1 77.5 100.4 164.7 110.3 265 1.9 19.7 1.6 72.1-.6 92.5-8.1 76-31.3 143.6-71.2 207.7-11.6 18.6-19.2 28.5-38 49.4-10.1 11.2-29.6 30.2-40.7 39.7l-3.7 3.2-6.5-4c-10.8-6.6-20.6-11.3-58-27.8-12.2-5.3-31-14.8-36.8-18.6-16.3-10.4-22.7-24.9-21.3-48 .3-5.5.9-20 1.2-32.1.5-19.8.4-23-1.5-32-3.5-17.1-11.6-30.5-23.5-38.9-9.3-6.6-13-8.2-40.6-17.7l-41.5-14.4C641.2 763 618 756.8 618 759.7c0 .5 3.6 2.5 8.1 4.7 7.2 3.4 26.5 14.4 52.4 29.5l21.7 12.7c17 9.7 20.6 12.3 26.6 18.8 15.4 16.9 16.1 37.3 2.8 78.4-7.3 22.4-9.5 31.6-10.3 42.9-1.2 18.2 2.7 28.5 15.6 41.3 9.9 9.9 19.7 16.6 40.1 27.5 27.9 14.9 42.9 23.8 49.3 29.1 6.7 5.6 10.2 9.8 9.2 11.4-.8 1.2-24.1 14-34 18.5-22.1 10.3-34.2 15.1-54 21.6-71.1 23.5-147.7 28.4-233.9 14.9-42.8-6.7-84.1-17.9-122.1-33-14.7-5.8-42.9-19.2-43.9-20.8-1.1-1.9 12.5-14.6 21.9-20.3 5-3.1 18.9-10.9 31-17.3 27.9-14.9 36.9-20.9 47.6-31.5 19.6-19.6 20.7-36.8 5.5-83.8-7-21.6-8.6-28.6-9.3-40.5-1.1-17.8 2.7-28.8 13.6-39.8 3.6-3.7 10-8.6 14.1-11l29-17.1c32.5-19.1 46.7-27.2 55.7-31.5 12.2-5.8 10.6-7-4.7-3.4-10.8 2.6-27.4 8-56.5 18.5a1243.06 1243.06 0 0 1-36 12.4c-28.4 8.9-42.2 19.2-50.5 37.5-7.2 15.9-8.9 32.5-6.4 63.9 2.8 35.2.5 45.7-12.5 58-7.5 7-24.1 16-53 28.7-24 10.5-40.2 18.3-49.7 24-4.6 2.7-9 5-9.8 5-2.5 0-33.9-33.9-48.7-52.5-40.4-51.1-71-112.7-87.4-176-23.2-89.9-20.1-185.1 9-272.9 42.3-127.9 137.8-232.7 260-285.4 71.5-30.8 151.9-43.2 229-35.3zm-442 50l60.1 39.6c.2.6-2.1 3.7-5 6.9l-5.4 6-16.8-11-30.6-20c-7.6-5-13.8-8.8-13.8-8.5 0 .4 1.1 2.2 2.3 4.1 2.2 3.2 12.6 21.1 23.2 40l7.9 13.8c2 3.5 3.6 6.9 3.6 7.5 0 .7-2.4 3.8-5.3 7.1l-5.2 5.8-28.7-12-34.7-15.2c-3.4-1.6-6.1-2.8-6.1-2.4 0 .3 4.9 6.1 10.8 12.7l23.6 27 12.8 14.7-5.2 6.1c-2.9 3.3-5.7 5.8-6.1 5.7-1.6-.5-61.4-73.6-61.4-75 0-1.8 11-13.7 12.6-13.8 1.8 0 56.3 22.6 65.2 27.1 3.1 1.6 5.7 2.7 5.7 2.4s-1.8-3.4-3.9-6.8c-3.1-5-18.7-32.7-31.7-56.6l-2.4-4.3 6.2-7c3.8-4.3 6.8-6.8 7.8-6.5.8.2 10.1 5.9 20.5 12.6zm820.7-1.2c3.2 3.2 5.8 6.1 5.8 6.5 0 .9-1.7 4.6-18.5 40.8L985 323c-2.8 6.3-5.5 11.8-5.9 12.2s-3.5-2.1-7-5.5l-6.2-6.4 5-10.2 5-10.2-14.2-14.5-14.2-14.5-9.7 4.5c-5.4 2.5-10.1 4.6-10.6 4.6-1.2 0-11.7-10.9-11.1-11.5 1.1-1.1 91.5-41.4 92.9-41.5.8 0 4 2.6 7.2 5.7zm74.2 92.8l4.8 7.5-11.4 15.3-30.3 40.9c-10.5 14.1-19.4 25.7-20 25.7-1.1.1-9.5-12.3-9.5-14 0-.6 3-4.8 6.6-9.5 4.1-5.2 6.3-8.8 5.8-9.6-1.1-1.9-20.6-32.2-21-32.6-.2-.4-15.9 3-20.5 4.4-1.1.3-2.9-1.5-5.9-6.1-2.4-3.6-4-6.9-3.6-7.3.8-.7 94.6-21.9 98.2-22.1 1.5-.1 3.3 1.8 6.8 7.4zm-968.9 40.6l49.3 6.5c.9.3.3 2.3-2.4 7.1l-4.5 7.9c-.6.7-3.8.6-11-.3-5.6-.8-10.7-1.2-11.4-.9-.7.2-2.8 3.5-4.8 7.3l-9 17.2-5.5 10.5 7.6 8.4 7.6 8.3-3.5 7c-1.9 3.8-3.8 6.8-4.4 6.8-.9 0-61.6-67.5-66.8-74.3-1.8-2.3-1.8-2.4.9-7.7 4.1-8.2 5.4-9.9 7.8-9.9 1.1 0 23.7 2.7 50.1 6.1zm1013.8 42l3.7 10.1-20.2 26.1-26.6 33.4c-3.4 4-6 7.3-5.8 7.3.3 0 5.2-1.8 10.8-4.1 13.9-5.5 51.7-19.6 54.8-20.4 2.3-.5 2.7-.1 4.8 5.9 1.2 3.6 2.2 6.9 2.2 7.4s-5.5 3-12.2 5.5l-78.4 28.5c-.1-.2-1.8-4.7-3.7-10l-3.5-9.7 15.4-19.8 21.7-27.8c3.4-4.4 8.4-10.4 11-13.3 2.7-3 4.7-5.6 4.5-5.8s-6.5 2-13.9 5c-17.3 6.8-52.1 19.6-53.4 19.6-1.2 0-6.2-13.6-5.4-14.5.3-.2 12.9-5 28-10.6l44.4-16.4 17.5-6.4c.3-.1 2.2 4.4 4.3 10zm-1094.7 32c2.4.6 4.4 1.7 4.4 2.5 0 .7-2.3 8.6-5 17.5-2.8 8.9-4.8 16.4-4.6 16.6.6.6 25.1 8.1 25.4 7.8.2-.2 2.5-7.4 5.2-16 2.6-8.6 5-15.8 5.3-16.2.3-.3 3.1.3 6.1 1.2 3.8 1.2 5.6 2.3 5.6 3.4 0 .9-2.1 7.9-4.5 15.6C76 483.1 74 490 74 490.7c0 1.3 25.4 9.7 27.3 9 .7-.3 3.4-7.8 6.1-16.8l5.3-16.8c.7-1 12.3 3.3 12.3 4.6 0 1.9-14.1 47.6-15 48.6-.6.7-29.2-7.8-79.2-23.4-8.3-2.6-12.8-4.5-12.8-5.4 0-1.1 12.6-43.1 14.5-48.4.3-.7 1.2-1 2.1-.7.9.4 3.6 1.1 6 1.7zM1171 528.9c0 .4 1.6 11.9 3.6 25.6 1.9 13.6 3.3 25 3 25.3-.7.6-11.9 2.3-12.3 1.8-.2-.2-1.5-8.1-2.8-17.6-1.4-9.6-2.7-17.5-2.9-17.8-.3-.2-6.4.4-13.6 1.4l-13.2 1.8.6 3.4c1.6 10.2 3.9 30.2 3.5 30.7-.8.8-11.2 2.6-11.7 2-.3-.3-1.6-7.8-2.9-16.7s-2.5-16.4-2.8-16.7c-.5-.4-27.3 2.8-28.6 3.5-.3.2.6 8.2 1.9 17.9 1.4 9.6 2.3 17.7 2 18-1 1.1-11.3 2.3-12.2 1.5-.9-.9-8.3-50.6-7.6-51.4.7-.6 87.6-13.4 92.3-13.5 2-.1 3.7.3 3.7.8zM567.2 201.1c-17.1.9-36.5 3.1-56.7 6.5-12.5 2.1-16 3.1-21.2 6-15 8.4-30.7 22.6-42.4 38.5-9 12-8.9 11.6-2.1 12.9 31 6.2 66.5 16.9 90.7 27.5 14.5 6.3 35.1 16.8 46.6 23.9 4.2 2.5 8.4 4.6 9.3 4.6s6.9-3.1 13.4-6.8c41.9-24.3 81.1-38.7 135-49.8 2.2-.4 2.2-.5.6-3.7-8.6-16.7-39.2-45.4-53.4-50.2-10.5-3.4-44.8-8-71.5-9.5-20-1.1-27.3-1.1-48.3.1zM727 220.9c0 .4 1.8 2.5 4.1 4.6 7.5 7.3 21.6 26.1 26.3 35.2 1.4 2.7 4.1 4.5 15.9 10.2 45.1 22.1 80.2 47.5 117.8 85.3 16.2 16.2 19.2 18.8 22.5 19.3 11.8 2.1 25.8 6.7 36.8 12.2 3.7 1.9 7 3.3 7.2 3.1.5-.6-12.4-17.6-23-30.5-8.3-10-38.5-41-50.1-51.4-20.1-18-49.2-38.4-76.5-53.6-22.5-12.5-48.2-24-71.2-31.9-5.4-1.8-9.8-2.9-9.8-2.5zm-288.5 5c-78.4 28.9-134.6 67.1-184 124.6-12.5 14.6-29.1 36.9-26.9 36.2 1-.3 5.1-1.7 8.9-3.1 3.9-1.3 13.4-3.8 21.3-5.4l14.2-3 18.8-18.8c36.2-36.6 70-61.3 114.4-83.7l17.9-9.1 6.3-10.2c7.8-12.5 12.7-19.1 19.6-26.7 2.8-3.1 4.6-5.7 3.9-5.7-.8.1-7.2 2.2-14.4 4.9z"/><path d="M409.7 286.8c-33.3 17.1-56.8 32.9-85.7 57.7-9.8 8.5-35.7 34.6-38.5 38.9-.9 1.3-2.7 7.7-4 14.2-1.4 6.6-3.2 13.8-4.1 16.1l-1.6 4.3h-5.9c-3.2 0-5.9-.4-5.9-.9 0-.6.6-3.8 1.4-7.3s1.7-8.9 2-12l.6-5.7-4.2-1.2c-8.7-2.3-21.4.4-36.1 7.8-8.9 4.4-13.7 8.9-19.4 18.2-2.6 4.2-5.8 9.2-7.1 11.1-4.5 6.6-21.8 42.5-27.5 57-12.8 32.7-21.4 63.3-27.2 96.5l-3.5 20.4c-2 11.2-.4 22.4 5.6 39.1 5.1 14.4 16.3 33.8 23.2 40.3l2.9 2.8 8.8-15.3c11.8-20.7 29.4-48.2 38.3-60l7.3-9.8 3.7 2c2 1.1 4.1 2 4.7 2 5.4 0 2.1 8.8-8.3 22.2-14.7 19-27.4 38.8-38.6 60.1l-6.8 12.7.7 6.3c6 58.1 27 121.4 56.3 170 4 6.5 7.2 12 7.2 12.3 0 .4 7.8 12.5 8.5 13.2 1.2 1.3 21.6-14.1 30.9-23.4 9.7-9.6 17.4-20.4 24.6-34.6 7.7-15.1 10.7-19.5 18-26.7 7.4-7.4 16.1-11.6 28.1-14.1 5.3-1 11.9-2.8 14.6-3.8 11.2-4.2 22.7-14 35.1-29.9 11.3-14.3 23-24.7 33.7-29.8 9-4.4 17.2-6.5 25-6.5 3.8 0 5.4-1.1 22.1-14.7 9.8-8 24.7-19.7 32.9-25.8 16.6-12.4 53.6-38 59.3-40.9 5.3-2.7 12.1-1.8 18 2.4 2.6 1.9 12.4 8.5 21.7 14.8 20.9 14.1 45.7 32.7 67.4 50.5l16.4 13.4 7.6.6c20.2 1.4 36.5 12 56.2 36.7 9.4 11.8 11 13.4 18.2 19.3 9.7 7.9 20.1 12.3 33.9 14.2 2.6.3 7.9 2.2 11.8 4.1 13 6.5 21.9 16.8 31.3 36.3 10.9 22.1 26.1 39 50 55 7.6 5.1 15.6 9.1 18.2 9.1 2.2 0 12.6-21 22.7-46 17.8-44.2 31.1-88.8 39.3-131.7 4.7-24.4 4.9-30.1 1.2-37.9l-2.9-6 3.3-5.4 4.6-7.8c.7-1.2 1.7-2.2 2.1-2.2s1.8 2.9 3 6.5c1.3 3.6 2.7 6.7 3.1 7 1.1.6 11.1-13.4 16.7-23.2 5-8.9 11.2-24 14.4-35.7l2.2-7.9-2.2-15.6c-6.8-49.6-20.3-94.6-42.5-142.4-14.8-31.7-17.8-35.4-39.5-48.9-15.9-9.8-22.5-13.1-32.3-15.8-10.9-3-10.3-3.5-11.1 8.2-.4 5.7-1.1 12.1-1.5 14.3l-.8 4-2-4.5c-1.1-2.5-3.7-8-5.6-12.2-2-4.3-3.9-9.9-4.3-12.4-.6-3.9-1.8-6-7.4-12.3-32.4-36.4-75.6-69.3-120.7-92-15.9-8.1-20.1-8.9-32.3-6.7-31.6 5.7-69.4 18.2-100 32.9-16.4 8-36.1 19.3-38.7 22.3l-2.3 2.5v67.5l1 69.4c.6 1.1 4.6 3.7 8.9 6 10.7 5.6 11.9 6.5 10.4 8.1-.7.7-1.3 3.7-1.3 6.5 0 2.9-.4 5.5-1 5.9-.5.3-6-2.4-12.2-6s-12.2-6.5-13.3-6.5c-1.8 0-14.3 6.9-27.4 15.1l-5.3 3.3-2.8-3.4c-3.1-3.8-4.1-6.2-3.1-7.8.8-1.2 21.5-15.4 25.8-17.5 6.8-3.6 6.3 2.3 6.3-73.6 0-64.3-.1-68.9-1.7-70.3-3-2.7-25.3-15.2-38.4-21.5-29.8-14.5-69.9-27.5-101.3-32.8-14-2.4-14-2.4-32.9 7.3zm372.2 106.6c3.6 1.8 9.1 4.8 12.1 6.6 6.5 3.9 14.3 7 17.3 7 1.2 0 7.5-2.4 14-5.4 6.4-3 11.7-5.2 11.7-5 0 .3-2.8 6.5-6.2 14-6 13.1-9.1 17.4-15.2 20.9-1.6.9-1.1 1.4 3.5 4 13.7 7.3 25.2 24 28.4 41 2.3 12.2 2.4 35 .1 46.9-2 10.3-6.2 22.4-9.8 28.1-5.3 8.5-5.1 8.9 1.4 3.1 4.7-4.1 9.5-10.1 17-21.4 14.7-22 21.1-34.1 27.4-52.1 7.6-21.6 6.8-17.3 10.9-61.5l1.9-16.3c.5-.6 13.2 28.6 15.4 35.7 8.3 25.9 10.6 38.9 9.9 55.5-.6 14.3-2.5 22.5-7.6 34.5l-3.8 9c-1.6 4.7 15.2-19.1 20.6-29 6-11.2 9.6-23.5 12.2-41.3 1.2-8.6 2.5-15.7 2.9-15.7 1.1 0 14.1 28.1 15.8 34.3 2.5 8.9 2.4 32.9-.1 41.2-2.4 7.8-9.7 22.4-15.1 30-8.8 12.5-5.3 9.8 9-6.8 12.9-15.1 20.6-26.6 30-45.2l8.2-16 1.1 4c6.2 23.4 7 34.8 3.2 49.2-4.9 19-19.9 43.9-38.5 64-5.8 6.2-7.8 9.3-6.1 9.3.7 0 15.7-9.4 21.8-13.8 7.1-5 22.2-16.9 33.7-26.6l11.3-9.5c.9-.8 1.9-1.2 2.2-.9.9.9-17.6 38.1-22.8 45.8-2.8 4.1-9.3 13.3-14.5 20.3-6.9 9.4-9.2 13.1-8.4 13.9s4.9.5 15.1-1.1c7.6-1.3 14.4-2.2 15-2 .5.2-2.9 7.1-7.6 15.4-6.7 11.5-10.3 16.6-15.7 22.1-7.7 7.6-15.8 13.9-22.1 17.2-6.9 3.4-20.7 7.9-28.5 9.1l-11 1.8-3.5.6 3.4.8c7.7 1.7 21.6 2 38.4.9 9.8-.7 18-1 18.3-.7.6.5-22.5 17.7-33.5 24.9-4.2 2.7-11.9 7-17.1 9.6l-9.9 4.8c-.2.2.7 1.3 2 2.4 5 4.2 20.7 11.2 37.5 16.6 9.6 3.1 17.4 6 17.4 6.4 0 1.1-8.2 2-19.4 2-11.1 0-22.3-2.2-32.7-6.5-3.4-1.4-6.4-2.3-6.6-2.1-.3.2 10.1 10 23 21.8 12.9 11.7 23.3 21.5 23.1 21.6-.1.2-6-2.1-13.1-5.2S936 800 935.5 800s2.2 3.1 6 7c3.8 3.8 6.7 7.2 6.4 7.4-.2.3-5.3-1.1-11.2-3.1-6-1.9-11.1-3.2-11.4-2.9-.4.3 2.9 9.6 7.1 20.7 4.3 11 7.6 20.2 7.4 20.5-.3.2-7.7-7.8-16.5-17.8-8.8-10.1-27.3-29.3-40.9-42.8-19.7-19.4-28.8-27.6-43.4-38.7-10.1-7.8-18.6-14.1-18.7-13.9-.4.4 8 20.8 14.8 36.1l5.1 11.5-2.5 4.2c-1.4 2.4-3 6.3-3.7 8.6-1 3.8-1.4 4.3-3.3 3.8-1.2-.3-3-.6-3.9-.6-2.5 0-2.3-2.7.6-10.4l2.5-6.5-4-9c-2.2-5-6.9-17.1-10.3-26.8l-6.4-17.8-5.8-3.8c-7.3-4.7-19.3-10.9-20.4-10.5-.4.2 1.7 4.6 4.8 9.8 3 5.2 10.4 19.7 16.4 32.3l10.9 22.7-.7 8.5c-.6 8.1-.8 8.5-2.8 7.9-6.8-2.1-6.6-1.8-6-8.6.5-6 .3-6.8-4.5-16.8-4.6-9.4-5.4-10.5-7.9-10.8-2.9-.3-2.9-.2-3.6 5.9-.3 3.4-.6 8.2-.6 10.5 0 5.9-1.2 5.8-6.2-.4-1.9-2.3-2.6-4.1-2.3-6 .2-1.5 1.2-9.5 2.1-17.7l1.7-15-6.7-12c-7.5-13.3-9.1-15.5-7.5-10.4 1.9 6.2 1 44.5-1.1 43.7-.4-.2-2.7-2.6-5.1-5.3l-4.4-5-2.4-21.5c-1.3-11.8-2.7-21.9-3.1-22.3-.4-.5-10.3 4.6-21.9 11.3l-21.2 12.1-2.9-2.3c-1.6-1.3-2.9-2.5-2.9-2.9-.1-.3 3.4-1.9 7.7-3.7 4.2-1.7 10.6-4.9 14.1-6.9 8.4-5 20.1-15 20.1-17.1 0-.9-1.8-2.9-3.8-4.4-2.1-1.5-6.2-4.8-9-7.3-6.3-5.7-6-5.8-23.2 3-13.4 6.8-28.5 12.5-32.8 12.5-1.6 0-4.3-1.4-6.7-3.5l-4-3.4 4-.1c2.2 0 11.2-2.5 20-5.6l19.8-6.6c2.9-.8 3.7-1.5 3.7-3.4 0-1.5-.6-2.4-1.5-2.4-.8 0-11.5 2.8-23.7 6.1-28.3 7.8-27.7 7.9-42.7-2.6-6.1-4.3-11-8-10.8-8.2s2.4.6 4.9 1.7c16.8 7.4 44.7 7.1 65.9-.9 10-3.8 10-3.7 4.3-12.3l-5.9-9.1c-.9-1.5-2.1-1.5-11.5-.6-5.8.6-15.9.9-22.5.6-27.5-1.2-46.9-8.8-64.1-25-4.5-4.2-8.4-7.7-8.7-7.7-.9 0 1.7 6.9 5.6 14.6 4.1 8.1 14.5 24 17.6 26.8 1.2 1.1 2.1 2.3 2.1 2.9 0 1.1-2.6-.5-13.3-8.1-7.1-5.1-8.1-6.3-12.6-14.6-2.6-5-5.7-11.6-6.9-14.6-2.1-5.8-8.5-38.2-8-40.6.2-.8 4.6 4.1 9.8 10.8 15.9 20.6 22.2 26.3 39.5 36.1 7 3.9 9.7 4.8 22.4 7.1 7.9 1.5 14.5 2.5 14.8 2.3.2-.3-2.9-1.7-6.9-3.2-24.6-9.3-27.9-11.4-43.3-26.9-18-18.2-26.5-35.7-26.7-54.7 0-7.6.5-10.1 4.2-21 2.3-6.8 4.6-12.8 5-13.3.5-.5 3.6 4.7 7.2 12 6.2 12.8 11.8 20.9 18.7 27.2 3.9 3.6 11.6 9.2 12.6 9.2.3 0-.8-2.1-2.6-4.6-8.7-12.7-14.6-32.4-15.6-52.5-.6-12.6.4-19.3 4.1-26.6 2.6-5.1 14.7-19.4 15.8-18.7.4.3.8 2.1.8 4s.4 3.4 1 3.4c.5 0 5.6-2.4 11.2-5.3 5.7-3 15.9-7.6 22.7-10.3 12.7-5 14.6-6.9 3.8-3.9-8.9 2.5-21.1 2.5-26.2 0-4.9-2.5-5.8-5.6-2-7.3 3.6-1.7 4.5-1.5 7.2 1 2.3 2.1 2.6 2.2 12.1.9 13.5-1.7 48.5-8.9 44.2-9-1.9-.1-12.3.5-23 1.3-22.7 1.7-64 3.1-64 2.2 0-.4 2.3-3.6 5.1-7.1 5.1-6.5 10.8-10.7 17.1-12.6 13.8-4 42-8 75.9-10.5l8.6-.7 1.2-3.4c1.9-5.2 7-9.6 17.3-14.8 8.6-4.3 9.7-4.6 14.7-4.1 3.1.4 8.2 2.1 12 4zm-534.3 12.1c5.2 2.6 9.8 7.9 12.3 14.2 1.3 3.2 1.4 3.2 7 2.8 3.1-.2 13.7-.7 23.6-1 20.2-.6 21.2-.3 22.4 5.5l.7 3.5 25.7 1.4 25.7 1.4 4-4.5c2.2-2.5 5.1-4.9 6.6-5.2 9.7-2.5 18.7 11.7 13.7 21.4-1 1.9-3.2 4.4-4.9 5.5-2.8 1.9-3 2.2-1.8 5 .7 1.7 1.8 6.7 2.4 11.3 1.2 8.1 1.2 8.4-.9 9.8-1.7 1.2-2.1 2.6-2.1 6.7-.1 3-.8 6.6-1.9 8.6l-1.8 3.4-2.2-7.1c-1.2-3.9-2.5-7.3-3-7.6s-1.2 3-1.6 7.5l-.7 8.1-3.3-3.2-3.2-3.1-1.3 4.5c-.7 2.6-1.5 4.6-1.8 4.6s-1.8-1.5-3.4-3.3l-2.8-3.2-1.6 2.2c-1.5 2-1.7 2.1-5.1.7-7.1-3-15.2 1.7-20.2 11.7-2.5 5-3.1 7.5-3.1 12.6 0 6.3 0 6.3 2.9 6.3 2.8 0 2.9-.1 2.8-4.9-.3-8.8 6.4-14.1 20.3-16.1 7.6-1.1 26.5.1 35.3 2.1 4.5 1.1 5.2.9 11.2-2 3.6-1.8 9.5-6 13.2-9.4 14.8-13.5 20.9-16.7 28.4-14.7 11.4 3.1 14.2 16.9 5.6 28.2-9 11.7-23.6 15.3-46 11.2-7.9-1.5-9.3-1.5-15-.1a221.75 221.75 0 0 1-8.8 2.1c-3 .6-3.9 3.4-3.9 12.2v5.3l-10.7-.6c-13-.6-25.1 1.2-37.4 5.7-17.4 6.4-23 7.2-32.4 4.6-11.1-3.1-18.8-8.2-25-16.6-6.1-8.3-9.4-5.1-3.5 3.5 6.4 9.4 20 17.6 32.3 19.8 6 1 7.4.9 13.9-1.1 37.9-11.6 46.8-13 54.8-9 4.7 2.4 9 8.3 9 12.5 0 2 .5 2.1 9.9 2.5 8.2.2 10.5.7 12.7 2.4 4.7 3.5 6.5 6.8 7.7 14.2 1.1 6.3 1.7 7.6 4.8 10.1 1.9 1.6 4.8 5.3 6.4 8.2 2.6 4.7 3 6.4 3 13.2 0 6.6.3 7.8 1.8 8.3 1 .3 2.5 2.1 3.4 4 1.6 3.3 1.6 3.5-1.5 9.4-5 9.4-3.9 21 2.6 28.4 4.6 5.3 5.4 11.4 4.9 35.9-.3 18.9-.7 22.3-3.1 31.6l-2.9 10.8c-.2.1-4.3-1.5-9.3-3.6-17.4-7.5-43.4-14.8-69.9-19.6-12.8-2.3-34.5-3.1-38.4-1.5-6.7 2.7-3.2 4 10.7 4 23.8 0 73.6 11.9 97.7 23.4l8.7 4.1-5.1 5.5c-2.8 3-8.5 9.6-12.7 14.7-18.2 22.4-28.1 28.8-52.5 33.8-5.1 1.1-10.1 3-15.4 6l-7.9 4.5-5-1.6c-12.3-4-19.7-9.7-24.1-18.4-2.8-5.4-5.4-15.5-5.6-21l-.1-3.5-1 2.8c-1.3 3.6.5 14 3.6 21.1 4.4 9.9 12.1 16.5 23.6 20.1 3 1 5.8 1.9 6.2 2.2.4.2-1.5 3.2-4.3 6.6-2.7 3.4-7.7 11.6-11.1 18.2s-8.3 15.4-11.1 19.5c-5.9 9-28.1 31.3-30.5 30.8-1.5-.3-1.7-2-1.5-15l.2-14.6-3.4-.6c-2-.4-4.3-1.8-5.6-3.4-1.9-2.4-2.1-3.6-1.6-10.2.3-4.1 1.7-12.5 3.2-18.5 2.2-9.4 4.8-32.1 3.8-33.4-.3-.4-9 1.5-12 2.6-1 .4-1.3-1.7-1.3-8.7 0-7.1.6-10.8 2.5-16.7 1.4-4.2 2.3-7.8 2-8.1s-2.6-.1-5 .6c-2.5.7-5 1.2-5.6 1.2-1.9 0-.6-37.4 1.5-42.9 2.2-5.9 2.1-6-1.9-2.1-1.9 1.8-3.7 3.1-4 2.8-1.1-1.1-2.7-17.3-2.3-23.6.5-8.7 4.1-16.3 14.6-31 11.5-15.8 12.5-18 12.9-28.2.2-4.7-.2-11.7-.9-15.5-1.2-6.5-1.5-7-4.1-7.3-1.6-.2-3.9.5-5.6 1.7-4.4 3.2-6.2 2.8-5.5-1.2.3-1.7.8-3.8 1-4.5.2-.8.1-5.2-.2-9.8-.6-7.7-.9-8.4-2.8-8.4-1.2 0-3.6.9-5.4 2s-3.5 2-3.7 2c-.3 0-.5-2.3-.5-5.1 0-2.7-.5-8.3-1.1-12.2-.5-4-1.2-8.7-1.5-10.5-.6-3.8-1.9-4-5.1-1l-2.3 2.1v-5c0-2.7-.3-8.5-.7-12.7-.5-6.5-.8-7.6-2.2-7-4.9 2-4.8 2.4-5.5-11.3-1-19.4-1.7-25.3-3-25.3-.7 0-3.6-1.2-6.5-2.6-6.3-3.2-12.1-10-15.1-18.1-2.6-6.9-2.9-18.6-.6-23.1 3.1-6.1 9.8-13.3 15.1-16.3 5.2-2.9 5.3-3.1 4.3-6-.6-1.7-.8-6.1-.6-9.8 1.1-15 13.5-27.7 27.4-28 1.6-.1 5.3 1 8 2.4zm279.2 5.9c.3.4-1.1 2.3-3.1 4.4s-3.7 4.1-3.7 4.5.9 1.7 2 2.9 2 2.8 2 3.5c0 1.6-.5 1.7 5.8-.7 8.5-3.3 16.5-2 19.2 2.9 1.4 2.8 1.4 2.8-2.8 3.5-2.1.3-4.7 1.5-5.9 2.5-1.8 1.8-2 2.4-1 4.6 1.1 2.3 1.6 2.5 9.1 2.5 7.7 0 7.9.1 11.2 3.5 2.3 2.5 3.6 5.1 4.4 9.1.7 3 1 5.8.7 6-.2.2-2.5-.5-5.1-1.7-4.8-2.1-8.7-2.2-9.3-.3-.2.6 2.4 3 5.7 5.3s6 4.7 6 5.2c0 1.9-9.2 5.1-15 5.2l-5.9.2.6 10.5c.3 5.8.9 10.9 1.4 11.5.5.5.9 2.7.9 4.8 0 3.6.2 3.9 2.3 3.3 2.1-.5 2.9.4 6.9 7.2 7.7 13 8.5 19.3 3 24.4-4 3.8-6.5 4.8-11.7 4.8-6.3 0-11.3-2.3-15.8-7.3-3.3-3.6-3.7-3.8-3.2-1.7 1.6 6.3 9.3 11.9 16.5 12.1 1.9.1 4.5.4 5.6.7l2.2.7-2.3 11.3c-9.6 47.1-43.2 108.9-80.5 147.6-8.3 8.7-25.6 23.3-32.1 27l-3.2 1.9.7-3.4c2.8-14 4.1-40.2 2.8-55.2-1-10-1.3-11.3-5.6-19.2-5.1-9.5-5.8-13.8-2.5-17.8 2.1-2.7 2.9-10.1 1.6-14.2-.6-1.7.6-2.6 8.5-6.4 26-12.5 41.5-28.5 63.3-65l8.6-14.4-4.9-10.6c-6.6-14-15.4-34.9-18.4-43.4-2-5.9-2.6-6.7-4.8-6.7-11.8 0-21.2-10.3-19.7-21.5.8-5.4 5.3-14.7 6-12.5.3.8.8 3.6 1.2 6.2.3 2.6 1.4 5.7 2.5 7l1.8 2.3 2.4-2.2c5.5-5.2 11.9-3.6 17.9 4.4 1.8 2.3 3.6 4 4 3.7.4-.2.5-2.8.2-5.7-.5-4.5-1.2-5.8-4.9-9.2-2.9-2.8-4.6-5.4-5.4-8.5a151.77 151.77 0 0 0-3-10.5c-4.2-13.5-3.9-14.6 3.6-17.4 7.1-2.7 7.5-2.6 7.2.7-.2 3.5 16.5 33.3 17.9 31.9 1-1-1.9-8.8-4.3-11.7-3.8-4.5-4.2-9.8-1.1-14.7 2.4-3.8 6.2-7.2 9.7-8.6 1.7-.7 8.9-.2 9.8.7zM497 534.5l2.2 5.4-3.1 4.3c-1.8 2.4-5 5.8-7.3 7.6-7.6 6-25.9 21.7-33.4 28.7-10.1 9.4-29.8 27-30.2 27-.3 0-1.6-3.2-2.9-7l-2.4-7 11.9-11.5c11.2-11 60.6-53 62.2-53 .4 0 1.8 2.5 3 5.5zm261.6-132.4c-3.2 1.7-5.6 3.2-5.4 3.4.1.2 2.2 1 4.6 1.8 6.2 2.2 22.2 12.9 22.2 14.9 0 2.9-1.6 2.9-6.5.1l-4.7-2.6-2.1 2.5c-3 3.5-5.2 4-9.3 2.3s-4.2-2.8-.8-6c3.1-2.9 2.6-5.2-1.1-6.1-2.4-.6-10.5 1.2-10.5 2.4 0 .3.9 1.9 1.9 3.6 1.9 3 3.6 7.7 8.1 22.3 1.6 5 2.8 7.3 3.9 7.4 4.3.3 7.1-.5 12.5-3.7 5.7-3.4 6.2-3.5 10.4-2.4 16.9 4.2 33.4 17.6 41.2 33.5 6.9 14 8 30.9 2.7 41.7-7.9 16.2-24.1 26.1-65.8 40.3-10.7 3.7-23 8.5-27.4 10.8-10.7 5.5-21.8 16.4-26.5 26.1l-3.4 6.8 1.2 10.7c2.6 23 10.7 38.7 29.6 57.6 14.4 14.3 26.1 22.5 47.6 33.3 45.9 23.2 80.2 49.3 122.8 93.5 5 5.3 9.2 9.4 9.2 9.2s-1.1-2.5-2.5-5.1c-3.6-6.8-3.4-7.8 1.8-7l4.2.7-4.2-4.3c-5.7-5.8-5.6-8.3.1-9.2.8-.1 1.8-.5 2.1-.8 1.1-1.1-24.5-24.8-33.1-30.6-9.7-6.5-15.1-10.9-14.4-11.6.3-.2 3.7.7 7.5 2.1 15.6 5.6 32.6 3.9 51-5.2 9.4-4.6 21.5-12.1 21.5-13.4 0-.4-3.6-.8-8-.9-14-.3-46.4-5.9-62.1-10.8-1.2-.3-2.8 1.1-5.3 4.4-5.6 7.7-9.9 10.2-17.7 10.2-10.5 0-18.5-5.2-14.8-9.7 2.2-2.6 5.2-3.1 9.9-1.7 7 2.1 10.3 1.8 13.2-1.3 3.5-3.9 3.9-5.5 2.6-11.8-1.5-7.4.2-9.5 7.8-9.5 5 0 5.5-.2 10.4-5.3 7.6-7.6 11.3-16.1 9.5-21.7-.7-2.3-2.2-2.3-9.8-.5-3.6 1-5.7-.9-5.7-5.1 0-2.4 1.2-4.7 4.4-8.8 2.5-3 4.8-7 5.1-8.9 1.4-7.1-3.6-16.7-10.6-20.3-1.6-.8-5.6-1.4-9.2-1.4-4 0-6.8-.5-7.4-1.3-.6-.6-1.3-4.2-1.6-7.8-.7-8.1-3.7-16.2-7.7-21.1-4.4-5.4-13.9-9.7-22.8-10.5l-7.2-.6-4.5 4.2c-3.7 3.4-5.2 4.2-7.8 3.9-2.9-.3-3.2-.6-3.5-4.1s.1-4.2 7.7-11.3c10.3-9.7 16.2-17.5 21.6-28.8 15.1-31.5 10.6-71.8-9.9-90.3-2.8-2.5-8.2-6.2-12.1-8.2-5.8-3-7.2-4.2-8.1-7-1.8-5.6-.5-8.3 5.3-11.1 9-4.4 12.2-8.7 5.8-7.7-5.5.9-14.1-1.9-25.5-8.3-18.3-10.3-20.9-10.8-30.4-5.9zm57.8 201.4c5.4 2.6 7.1 5.6 5.9 10.3-1.4 5.6-.2 7.7 6.8 11.2l6.1 3.1-.6 5.3c-.7 5.1-.7 5.2 3.3 8.4 4.8 3.9 5.7 6.2 3.7 10.1-2.1 4-2 7.4.4 12.1 1.1 2.2 2 5.4 2 7.2 0 9.8-11.7 15.9-21 10.9-2.8-1.4-3.5-2.5-3.5-4.7v-2.9l7.7.3c6.6.3 7.8.1 8.6-1.5 1.2-2.2.2-5.2-2.7-7.7-2.9-2.6-3.6-7.6-1.7-11.4 2.3-4.4 2.1-4.9-2.1-5.7-7.8-1.4-8.7-3.2-5.2-9.5 3.5-6.1 2.3-7.4-6.1-6.6-8 .8-8.4.3-5-6.4 2.1-4.2 2.7-11.9 1-14.9-2.4-4.5-8.9-2.9-12.2 3-1.6 2.8-2.8 3.9-4.5 3.9-5.2 0-4.2-5.7 2.1-12.5 4.3-4.5 4.7-4.7 8.8-4.3 2.4.3 6.1 1.3 8.2 2.3zm-98.9-183c-29.6 2.8-37.4 3.8-48.8 6.2-12.2 2.5-19.9 5.2-21.2 7.4-.6.9 2.5 1.1 14.6.5l48.2-1.3c22.8-.4 32.7-.9 32.7-1.7 0-.6-1.3-3.6-2.8-6.6-3.3-6.5-2.5-6.4-22.7-4.5zm184.3 17.1c-.3.5-.9 4.9-1.3 9.9-1.8 24.4-8.8 44.8-23.6 69.6-7.1 11.9-23.8 36.1-32.6 47.4l-4.2 5.4 6 3.2c5.4 2.9 13.9 10.9 13.9 13 0 3.7 7.5-4.5 26.3-28.4 13.1-16.7 22.2-34.3 25.2-48.7 2.1-9.8 2.1-30 0-41-2.6-13.6-8.6-32.4-9.7-30.4zm-160 2.9c-.2.3-14.8 6.1-32.4 12.9-38.6 14.9-43.4 16.9-43.4 17.8 0 2.7 19.5-1.9 50.5-11.7l28.1-8.5c2.7 0 3.6-2.7 2.3-6.9-1.1-3.7-3.4-5.3-5.1-3.6zm31.2 13.8c-5.2 3-6.1 3.2-16 3.3-9.5.1-11.8.6-23.5 4.4l-24.7 7.9c-13.7 4.1-12.7 1.8-10.4 22.2 1.7 14.7 2.9 20 5.3 22.1 1 .8 6.3 3.8 11.8 6.7 11.4 6 26.5 15.8 34.9 22.7 6.9 5.6 6.9 5.6 27.5-1.2 22.3-7.3 35.6-16.1 40.1-26.6 7.4-17.3-.7-41.3-18.7-54.8-5.1-3.9-17.3-10-19.8-9.9-.5 0-3.5 1.4-6.5 3.2zm-128.4 24.4c1 6.9 3.1 12.9 7.2 20.3 3.2 5.9 11 18 11.5 18 .1 0 .3-2.8.4-6.3.1-3.6 1.1-8.8 2.4-12.2 2.1-5.7 8.8-16.7 10.9-18 2.5-1.6.4-2.2-5.8-1.7-5.3.3-8.8-.1-16.4-2.2l-10.2-2.6c-.4 0-.4 2.1 0 4.7zm37.6 5.8c-2.3 2.6-5.7 7.7-7.4 11.3-2.8 5.6-3.3 7.7-3.3 14.1 0 6.8.4 8.5 3.8 15.5 4.8 10.1 16.7 22.3 31.4 32 12.5 8.3 13.9 8.5 25.7 2.5 9.6-4.9 9.6-4.9 5.2-13.8-2.8-5.8-6.3-8.5-20-15.4-20.9-10.5-25.1-17-30.3-46.6l-.8-4.5-4.3 4.9zm266.9.5c-5.4 21.5-13.3 36.3-32.4 60.8-10.7 13.8-29.7 33.4-41.7 43l-9.8 7.8c-.1.1.1 2.7.4 5.9l.7 5.7 6.1-.4c21.3-1.4 60.5-38.7 77.2-73.5 6.4-13.2 7.8-29.8 3.8-45-2.3-8.7-3-9.4-4.3-4.3zm-315.4 4.5c-7.2 15.2-.9 51.6 12.1 69.5 10 13.7 27.2 25.6 45.1 31l6 1.8 3.1-5.4c1.7-3 4.7-7.3 6.7-9.5 3-3.3 3.4-4.2 2.2-5-.8-.5-1.9-.9-2.5-.9-2.9 0-17.8-11.2-26-19.4-11.3-11.4-14.9-15.7-23.4-27.6-8.3-11.7-14.1-21.9-17.6-31-1.5-3.9-3.1-7-3.4-7s-1.4 1.6-2.3 3.5zM987 522.7c-19.5 34.6-58.2 72.1-90.8 88-9 4.4-9.2 4.6-7.7 6.7 3.8 5.3 5.8 10.4 6.3 16.3.4 4.9.8 6.3 2.1 6.3 2.7-.1 21.7-10.5 30.4-16.7 10.2-7.3 29.4-26.2 37.5-37 13.4-17.7 22.4-35 25.6-49 1.7-7.7 2.2-20.3.7-20.3-.5 0-2.4 2.6-4.1 5.7zm-384.7 22c-.4 1.5-.8 6.4-.7 10.8 0 6.5.7 9.5 3.3 16.1 8.3 21.1 32.6 45.2 56 55.4 9.8 4.2 25 8 32.3 8 5.8 0 6-.1 5.4-2.3-1.7-6.1-4-21.5-4.6-30.8 0-.8-12.5-6.2-30-12.9-31.5-12.1-46-22.6-56.2-40.7-3.7-6.6-4.5-7.1-5.5-3.6zM996 597.6c-20.7 16.7-63.4 41.5-88.5 51.4-10.2 4-9.7 3.6-8 7 .8 1.6 1.5 4.6 1.5 6.6v3.7l4.7-.7c8.5-1.1 21.5-5.6 33.8-11.7 24.2-11.8 46.7-32.2 60.3-54.7 4.8-7.9 4.2-8.1-3.8-1.6zm-18 61c-15 7.6-43.5 16.1-66.5 19.9-10.4 1.7-13.6 3.1-17 7.4-1.1 1.4-3 3.6-4.2 4.7-1.3 1.2-2.3 2.6-2.3 3.2 0 3.6 28.9 5.5 43.3 2.8 18.4-3.5 30.8-9.4 39.2-18.9 6-6.8 17.4-21.8 17.5-23 0-1.1-.7-.8-10 3.9zM289 438.9c0 1.7-18.1 17.1-20.8 17.6-11 2.3-16 5.7-18.8 13.1-2.2 5.9-1.2 6.7 1.5 1.1 2.5-5.1 7.9-9.2 13.4-10.2 3.4-.7 3.7-.5 3.7 1.5 0 3.3 3.9 9.6 6.7 10.9 5.1 2.3 11.2.1 13.8-4.9 1.9-3.6 1.9-12 .1-16.4-1.5-3.7-1.1-7.9 1-9.7 1.6-1.3 1.9-3.9.4-3.9-.5 0-1 .4-1 .9zm-3 15.1c3.6 2.3-4 11-9.7 11-5.3 0-3.5-6.8 2.7-10 4-2.2 4.9-2.3 7-1zm753.7 207.5c-4 8.3-14.5 24.1-21.1 31.8l-5.8 6.8-4.9 27.2c-11.2 63.3-10.5 60.9-40.5 136.5l-18.7 47.4c-.1.7 3.3 2.1 8.3 3.4l8.5 2.3 1.9-2.2c4.4-5.2 28.4-47.1 32.4-56.7 25.2-59.7 35.1-95.4 40.7-146.5 1.8-16.5 3.5-52.3 2.5-54.3-.3-.7-1.7 1.1-3.3 4.3zM139 669.6c-.1 77.2 25.1 164.1 67.5 232.9 11.2 18.1 13 20.5 16 20.5 2.4 0 14-7.4 20.9-13.3l4-3.4-10.5-16.7-14.3-22.9c-13.7-21.8-31.1-64.8-41.5-102.7-3-10.9-7.7-34.7-9.6-48-2.2-16-1.9-15.3-8.1-22.2-7.9-8.8-13.6-17.1-19.4-28l-5-9.3v13.1zm857-418c-2.5 1.3-11.2 5.3-19.5 8.9-8.2 3.7-15.3 7-15.7 7.4-.4.3 4.2 5.6 10.2 11.6l10.9 10.9 3.2-6.9c1.7-3.9 6-13 9.5-20.4l6.2-13.6c-.2-.1-2.3.8-4.8 2.1zm71.5 88.1c-2.7.7-12.4 2.9-21.5 4.9-9 1.9-16.6 3.7-16.8 3.9-.5.5 11.6 19.8 14.8 23.7 1 1.3 2 2.1 2.3 1.8.2-.3 5.2-7 11.2-15 5.9-8 11.9-15.7 13.3-17.2s2.4-2.9 2.1-3.1c-.2-.2-2.6.2-5.4 1zm-976 50.9l15.4 17.2c4.4 5 5.7 6 6.7 5 1.6-1.7 13.8-25.8 13.3-26.2-.2-.2-6.7-1.1-14.4-2-13.9-1.7-23.7-3.2-28.5-4.3-1.9-.5-.1 1.9 7.5 10.3z"/></svg>